<mxfile host="app.diagrams.net" modified="2023-11-13T09:51:26.448Z" agent="Mozilla/5.0 (Windows NT 10.0; Win64; x64) AppleWebKit/537.36 (KHTML, like Gecko) Chrome/118.0.0.0 Safari/537.36 Edg/118.0.2088.76" etag="BZqR27F3wmzCNSvqFZyw" version="22.0.8" type="github">
  <diagram id="r8akQIV7CGBrM3lP9Y4Y" name="第 1 页">
    <mxGraphModel dx="1151" dy="618" grid="1" gridSize="10" guides="1" tooltips="1" connect="1" arrows="1" fold="1" page="1" pageScale="1" pageWidth="827" pageHeight="1169" math="0" shadow="0">
      <root>
        <mxCell id="0" />
        <mxCell id="1" parent="0" />
        <mxCell id="JZaMcMR9lpj9uPJ0zUYt-16" value="AMF" style="rounded=0;whiteSpace=wrap;html=1;" vertex="1" parent="1">
          <mxGeometry x="190" y="70" width="120" height="60" as="geometry" />
        </mxCell>
        <mxCell id="JZaMcMR9lpj9uPJ0zUYt-17" value="CORE" style="rounded=0;whiteSpace=wrap;html=1;" vertex="1" parent="1">
          <mxGeometry x="190" y="270" width="400" height="60" as="geometry" />
        </mxCell>
        <mxCell id="JZaMcMR9lpj9uPJ0zUYt-19" value="MME" style="rounded=0;whiteSpace=wrap;html=1;" vertex="1" parent="1">
          <mxGeometry x="460" y="70" width="120" height="60" as="geometry" />
        </mxCell>
        <mxCell id="JZaMcMR9lpj9uPJ0zUYt-27" style="edgeStyle=orthogonalEdgeStyle;rounded=0;orthogonalLoop=1;jettySize=auto;html=1;exitX=1;exitY=0.5;exitDx=0;exitDy=0;entryX=0.25;entryY=1;entryDx=0;entryDy=0;" edge="1" parent="1" source="JZaMcMR9lpj9uPJ0zUYt-21" target="JZaMcMR9lpj9uPJ0zUYt-16">
          <mxGeometry relative="1" as="geometry" />
        </mxCell>
        <mxCell id="JZaMcMR9lpj9uPJ0zUYt-21" value="" style="triangle;whiteSpace=wrap;html=1;rotation=-90;" vertex="1" parent="1">
          <mxGeometry x="210" y="240" width="30" height="30" as="geometry" />
        </mxCell>
        <mxCell id="JZaMcMR9lpj9uPJ0zUYt-30" style="edgeStyle=orthogonalEdgeStyle;rounded=0;orthogonalLoop=1;jettySize=auto;html=1;exitX=1;exitY=0.5;exitDx=0;exitDy=0;entryX=0.75;entryY=1;entryDx=0;entryDy=0;" edge="1" parent="1" source="JZaMcMR9lpj9uPJ0zUYt-22" target="JZaMcMR9lpj9uPJ0zUYt-19">
          <mxGeometry relative="1" as="geometry" />
        </mxCell>
        <mxCell id="JZaMcMR9lpj9uPJ0zUYt-22" value="" style="triangle;whiteSpace=wrap;html=1;rotation=-90;" vertex="1" parent="1">
          <mxGeometry x="550" y="240" width="30" height="30" as="geometry" />
        </mxCell>
        <mxCell id="JZaMcMR9lpj9uPJ0zUYt-29" style="edgeStyle=orthogonalEdgeStyle;rounded=0;orthogonalLoop=1;jettySize=auto;html=1;exitX=1;exitY=0.5;exitDx=0;exitDy=0;entryX=0.25;entryY=1;entryDx=0;entryDy=0;" edge="1" parent="1" source="JZaMcMR9lpj9uPJ0zUYt-23" target="JZaMcMR9lpj9uPJ0zUYt-19">
          <mxGeometry relative="1" as="geometry" />
        </mxCell>
        <mxCell id="JZaMcMR9lpj9uPJ0zUYt-23" value="" style="triangle;whiteSpace=wrap;html=1;rotation=-90;" vertex="1" parent="1">
          <mxGeometry x="470" y="240" width="30" height="30" as="geometry" />
        </mxCell>
        <mxCell id="JZaMcMR9lpj9uPJ0zUYt-28" style="edgeStyle=orthogonalEdgeStyle;rounded=0;orthogonalLoop=1;jettySize=auto;html=1;exitX=1;exitY=0.5;exitDx=0;exitDy=0;entryX=0.75;entryY=1;entryDx=0;entryDy=0;" edge="1" parent="1" source="JZaMcMR9lpj9uPJ0zUYt-24" target="JZaMcMR9lpj9uPJ0zUYt-16">
          <mxGeometry relative="1" as="geometry" />
        </mxCell>
        <mxCell id="JZaMcMR9lpj9uPJ0zUYt-24" value="" style="triangle;whiteSpace=wrap;html=1;rotation=-90;" vertex="1" parent="1">
          <mxGeometry x="290" y="240" width="30" height="30" as="geometry" />
        </mxCell>
        <mxCell id="JZaMcMR9lpj9uPJ0zUYt-37" style="edgeStyle=orthogonalEdgeStyle;rounded=0;orthogonalLoop=1;jettySize=auto;html=1;exitX=0.5;exitY=0;exitDx=0;exitDy=0;entryX=0.25;entryY=1;entryDx=0;entryDy=0;" edge="1" parent="1" source="JZaMcMR9lpj9uPJ0zUYt-31" target="JZaMcMR9lpj9uPJ0zUYt-17">
          <mxGeometry relative="1" as="geometry" />
        </mxCell>
        <mxCell id="JZaMcMR9lpj9uPJ0zUYt-31" value="RAN" style="ellipse;whiteSpace=wrap;html=1;aspect=fixed;" vertex="1" parent="1">
          <mxGeometry x="100" y="460" width="80" height="80" as="geometry" />
        </mxCell>
        <mxCell id="JZaMcMR9lpj9uPJ0zUYt-32" value="RAN" style="ellipse;whiteSpace=wrap;html=1;aspect=fixed;" vertex="1" parent="1">
          <mxGeometry x="560" y="460" width="80" height="80" as="geometry" />
        </mxCell>
        <mxCell id="JZaMcMR9lpj9uPJ0zUYt-40" style="edgeStyle=orthogonalEdgeStyle;rounded=0;orthogonalLoop=1;jettySize=auto;html=1;exitX=0.5;exitY=0;exitDx=0;exitDy=0;entryX=0.75;entryY=1;entryDx=0;entryDy=0;" edge="1" parent="1" source="JZaMcMR9lpj9uPJ0zUYt-33" target="JZaMcMR9lpj9uPJ0zUYt-17">
          <mxGeometry relative="1" as="geometry" />
        </mxCell>
        <mxCell id="JZaMcMR9lpj9uPJ0zUYt-33" value="RAN" style="ellipse;whiteSpace=wrap;html=1;aspect=fixed;" vertex="1" parent="1">
          <mxGeometry x="445" y="460" width="80" height="80" as="geometry" />
        </mxCell>
        <mxCell id="JZaMcMR9lpj9uPJ0zUYt-38" style="edgeStyle=orthogonalEdgeStyle;rounded=0;orthogonalLoop=1;jettySize=auto;html=1;exitX=0.5;exitY=0;exitDx=0;exitDy=0;" edge="1" parent="1" source="JZaMcMR9lpj9uPJ0zUYt-34">
          <mxGeometry relative="1" as="geometry">
            <mxPoint x="290" y="330" as="targetPoint" />
          </mxGeometry>
        </mxCell>
        <mxCell id="JZaMcMR9lpj9uPJ0zUYt-34" value="RAN" style="ellipse;whiteSpace=wrap;html=1;aspect=fixed;" vertex="1" parent="1">
          <mxGeometry x="200" y="460" width="80" height="80" as="geometry" />
        </mxCell>
        <mxCell id="JZaMcMR9lpj9uPJ0zUYt-39" style="edgeStyle=orthogonalEdgeStyle;rounded=0;orthogonalLoop=1;jettySize=auto;html=1;exitX=0.5;exitY=0;exitDx=0;exitDy=0;" edge="1" parent="1" source="JZaMcMR9lpj9uPJ0zUYt-35" target="JZaMcMR9lpj9uPJ0zUYt-17">
          <mxGeometry relative="1" as="geometry" />
        </mxCell>
        <mxCell id="JZaMcMR9lpj9uPJ0zUYt-35" value="RAN" style="ellipse;whiteSpace=wrap;html=1;aspect=fixed;" vertex="1" parent="1">
          <mxGeometry x="320" y="460" width="80" height="80" as="geometry" />
        </mxCell>
        <mxCell id="JZaMcMR9lpj9uPJ0zUYt-41" style="edgeStyle=orthogonalEdgeStyle;rounded=0;orthogonalLoop=1;jettySize=auto;html=1;entryX=0.915;entryY=1.05;entryDx=0;entryDy=0;entryPerimeter=0;" edge="1" parent="1" source="JZaMcMR9lpj9uPJ0zUYt-32" target="JZaMcMR9lpj9uPJ0zUYt-17">
          <mxGeometry relative="1" as="geometry" />
        </mxCell>
        <mxCell id="JZaMcMR9lpj9uPJ0zUYt-47" style="edgeStyle=orthogonalEdgeStyle;rounded=0;orthogonalLoop=1;jettySize=auto;html=1;exitX=0;exitY=0.5;exitDx=0;exitDy=0;" edge="1" parent="1" source="JZaMcMR9lpj9uPJ0zUYt-42" target="JZaMcMR9lpj9uPJ0zUYt-17">
          <mxGeometry relative="1" as="geometry" />
        </mxCell>
        <mxCell id="JZaMcMR9lpj9uPJ0zUYt-42" value="AGENT" style="rounded=0;whiteSpace=wrap;html=1;" vertex="1" parent="1">
          <mxGeometry x="827" y="270" width="120" height="60" as="geometry" />
        </mxCell>
        <mxCell id="JZaMcMR9lpj9uPJ0zUYt-46" style="edgeStyle=orthogonalEdgeStyle;rounded=0;orthogonalLoop=1;jettySize=auto;html=1;" edge="1" parent="1" source="JZaMcMR9lpj9uPJ0zUYt-43" target="JZaMcMR9lpj9uPJ0zUYt-42">
          <mxGeometry relative="1" as="geometry" />
        </mxCell>
        <mxCell id="JZaMcMR9lpj9uPJ0zUYt-43" value="OAM" style="rounded=0;whiteSpace=wrap;html=1;" vertex="1" parent="1">
          <mxGeometry x="827" y="70" width="120" height="60" as="geometry" />
        </mxCell>
        <mxCell id="JZaMcMR9lpj9uPJ0zUYt-45" style="edgeStyle=orthogonalEdgeStyle;rounded=0;orthogonalLoop=1;jettySize=auto;html=1;exitX=0;exitY=0.5;exitDx=0;exitDy=0;" edge="1" parent="1" source="JZaMcMR9lpj9uPJ0zUYt-44" target="JZaMcMR9lpj9uPJ0zUYt-43">
          <mxGeometry relative="1" as="geometry" />
        </mxCell>
        <mxCell id="JZaMcMR9lpj9uPJ0zUYt-44" value="WEB&lt;br&gt;" style="rounded=0;whiteSpace=wrap;html=1;" vertex="1" parent="1">
          <mxGeometry x="1060" y="70" width="120" height="60" as="geometry" />
        </mxCell>
      </root>
    </mxGraphModel>
  </diagram>
</mxfile>
